<svg width="60" height="60" viewBox="0 0 60 60" fill="none" xmlns="http://www.w3.org/2000/svg">
<rect width="60" height="60" rx="10" fill="#ED553B"/>
<rect x="3.5" y="3.5" width="53" height="53" rx="9" fill="#ED553B" stroke="white" stroke-width="2"/>
<path d="M18.0834 32.1679C17.7961 32.1679 17.5205 32.2821 17.3173 32.4853C17.1141 32.6884 17 32.964 17 33.2514V41.9166C17 42.2039 17.1141 42.4795 17.3173 42.6827C17.5205 42.8859 17.7961 43 18.0834 43H26.7508C27.0382 43 27.3137 42.8859 27.5169 42.6827C27.7201 42.4795 27.8342 42.2039 27.8342 41.9166V33.2514C27.8342 32.964 27.7201 32.6884 27.5169 32.4853C27.3137 32.2821 27.0382 32.1679 26.7508 32.1679H18.0834ZM33.2514 32.1679C32.964 32.1679 32.6884 32.2821 32.4853 32.4853C32.2821 32.6884 32.1679 32.964 32.1679 33.2514V41.9166C32.1679 42.2039 32.2821 42.4795 32.4853 42.6827C32.6884 42.8859 32.964 43 33.2514 43H41.9166C42.2039 43 42.4795 42.8859 42.6827 42.6827C42.8859 42.4795 43 42.2039 43 41.9166V33.2514C43 32.964 42.8859 32.6884 42.6827 32.4853C42.4795 32.2821 42.2039 32.1679 41.9166 32.1679H33.2514ZM18.0834 17C17.7961 17 17.5205 17.1141 17.3173 17.3173C17.1141 17.5205 17 17.7961 17 18.0834V26.7508C17 27.0382 17.1141 27.3137 17.3173 27.5169C17.5205 27.7201 17.7961 27.8342 18.0834 27.8342H26.7508C27.0382 27.8342 27.3137 27.7201 27.5169 27.5169C27.7201 27.3137 27.8342 27.0382 27.8342 26.7508V18.0834C27.8342 17.7961 27.7201 17.5205 27.5169 17.3173C27.3137 17.1141 27.0382 17 26.7508 17H18.0834ZM33.2514 17C32.964 17 32.6884 17.1141 32.4853 17.3173C32.2821 17.5205 32.1679 17.7961 32.1679 18.0834V26.7508C32.1679 27.0382 32.2821 27.3137 32.4853 27.5169C32.6884 27.7201 32.964 27.8342 33.2514 27.8342H41.9166C42.2039 27.8342 42.4795 27.7201 42.6827 27.5169C42.8859 27.3137 43 27.0382 43 26.7508V18.0834C43 17.7961 42.8859 17.5205 42.6827 17.3173C42.4795 17.1141 42.2039 17 41.9166 17H33.2514Z" fill="white"/>
</svg>
