<svg width="33" height="28" viewBox="0 0 33 28" fill="none" xmlns="http://www.w3.org/2000/svg">
<rect x="0.5" y="0.5" width="31.5016" height="27" rx="4.5" fill="#D9D9D9" fill-opacity="0.03" stroke="#393280"/>
<path d="M18.2745 14.1305L21.686 10.6448C22.1047 10.2171 22.1047 9.52357 21.686 9.09548L20.9278 8.32081C20.5092 7.89306 19.8305 7.89306 19.4115 8.32081L16 11.8065L12.5885 8.32081C12.1699 7.89306 11.4911 7.89306 11.0722 8.32081L10.314 9.09548C9.89534 9.52322 9.89534 10.2167 10.314 10.6448L13.7255 14.1305L10.314 17.6162C9.89534 18.0439 9.89534 18.7374 10.314 19.1655L11.0722 19.9402C11.4908 20.368 12.1699 20.368 12.5885 19.9402L16 16.4545L19.4115 19.9402C19.8301 20.368 20.5092 20.368 20.9278 19.9402L21.686 19.1655C22.1047 18.7378 22.1047 18.0443 21.686 17.6162L18.2745 14.1305Z" fill="#393280"/>
</svg>
